<?xml version="1.0" standalone="no"?>
<!DOCTYPE svg PUBLIC "-//W3C//DTD SVG 20010904//EN"
 "http://www.w3.org/TR/2001/REC-SVG-20010904/DTD/svg10.dtd">
<svg version="1.0" xmlns="http://www.w3.org/2000/svg"
 width="601.000000pt" height="601.000000pt" viewBox="0 0 601.000000 601.000000"
 preserveAspectRatio="xMidYMid meet">
<metadata>
Created by potrace 1.11, written by Peter Selinger 2001-2013
</metadata>
<g transform="translate(0.000000,601.000000) scale(0.100000,-0.100000)"
fill="#000000" stroke="none">
<path d="M1996 5871 c-9 -10 -34 -21 -55 -25 -48 -7 -85 -47 -97 -106 -18 -82
-21 -117 -13 -131 26 -50 163 -126 239 -133 106 -9 148 46 124 162 -16 79 -58
163 -106 213 -42 43 -66 48 -92 20z"/>
<path d="M1272 5358 c41 -180 75 -278 94 -278 6 0 0 61 -10 105 -15 68 -77
215 -91 215 -2 0 2 -19 7 -42z"/>
<path d="M3556 5207 c-52 -29 -75 -63 -82 -116 -7 -60 25 -125 76 -151 43 -22
67 -20 115 10 97 60 63 281 -44 280 -14 0 -44 -10 -65 -23z"/>
<path d="M1401 5042 c-44 -7 -70 -33 -85 -82 -25 -84 -5 -176 49 -218 36 -28
100 -20 137 16 89 87 12 302 -101 284z"/>
<path d="M2222 4987 c-65 -18 -80 -49 -70 -139 12 -109 14 -113 77 -181 61
-65 129 -107 174 -107 41 0 100 28 122 58 29 40 27 151 -4 210 -39 75 -97 130
-155 147 -81 23 -98 24 -144 12z"/>
<path d="M2766 4731 c10 -39 22 -48 40 -29 22 21 12 44 -20 50 -23 5 -25 3
-20 -21z"/>
<path d="M1380 4601 c0 -27 -15 -34 -40 -21 -18 10 -27 7 -57 -16 -99 -75
-107 -284 -15 -378 47 -48 84 -62 131 -48 67 20 96 56 131 158 22 63 21 68
-54 187 -27 43 -49 91 -50 107 -1 24 -5 30 -23 30 -16 0 -23 -6 -23 -19z"/>
<path d="M4369 4596 c-2 -2 -44 -6 -94 -10 -101 -6 -147 -17 -186 -43 -15 -10
-39 -27 -55 -37 -16 -11 -40 -29 -53 -40 -31 -28 -94 -164 -92 -198 1 -15 -5
-38 -14 -51 -14 -22 -14 -25 -1 -30 21 -8 35 -66 25 -101 -7 -24 -4 -33 20
-55 16 -15 37 -50 47 -78 14 -41 24 -53 51 -62 20 -8 35 -21 39 -35 4 -18 11
-22 29 -18 14 2 42 -7 70 -23 41 -24 54 -27 108 -23 38 3 75 13 97 27 19 11
49 21 66 21 25 0 43 12 85 55 29 30 61 55 70 55 17 0 29 27 29 66 0 12 11 38
25 58 19 28 22 41 15 60 -5 14 -5 39 1 63 9 34 6 51 -32 148 -23 61 -48 117
-55 126 -8 9 -33 22 -55 29 -23 8 -63 33 -89 57 -26 23 -49 41 -51 39z"/>
<path d="M2924 3727 c4 -17 2 -35 -5 -43 -12 -15 -51 -19 -63 -7 -9 9 -38 13
-48 7 -4 -3 -1 -21 7 -40 7 -18 10 -34 5 -34 -5 0 -17 -11 -26 -25 -15 -23
-15 -30 -1 -80 14 -50 14 -55 -2 -69 -24 -21 -73 -20 -151 4 -36 11 -85 22
-110 26 -116 14 -143 22 -214 55 -68 32 -113 37 -123 14 -7 -20 -2 -25 33 -31
30 -5 182 -62 199 -75 23 -16 150 -49 192 -49 38 0 52 -6 90 -40 48 -42 79
-55 47 -19 -19 22 -19 22 6 14 68 -19 287 -208 261 -225 -9 -5 -9 -14 -1 -34
15 -39 0 -57 -61 -76 -53 -17 -54 -18 -56 -59 -2 -23 -11 -58 -21 -79 -18 -35
-18 -39 -2 -76 10 -21 16 -46 15 -55 -2 -9 -4 -21 -4 -28 -1 -14 -42 -57 -67
-71 -15 -8 -15 -17 -4 -79 7 -39 10 -94 8 -123 -5 -53 10 -104 59 -193 15 -28
14 -30 -18 -63 -34 -35 -33 -37 14 -34 43 3 67 -25 67 -76 0 -36 5 -46 30 -64
32 -23 53 -78 45 -123 -4 -22 -2 -27 14 -27 58 0 99 -49 110 -131 1 -3 20 -6
44 -7 57 -3 78 -10 105 -35 19 -18 22 -28 17 -59 -8 -44 1 -47 39 -17 42 33
115 2 160 -69 13 -21 30 -39 38 -39 7 -1 27 -6 45 -11 29 -9 36 -7 69 19 64
51 111 50 125 -2 6 -21 7 -20 8 9 1 47 34 87 85 107 70 27 86 19 109 -50 35
-104 39 -115 48 -115 10 0 5 25 -15 72 -9 20 -12 39 -8 42 12 7 52 -5 52 -15
0 -14 61 -79 74 -79 54 0 290 -455 381 -733 33 -101 35 -122 20 -272 l-7 -80
41 -75 c23 -41 49 -92 59 -112 9 -21 23 -38 31 -38 7 0 29 -14 48 -30 18 -17
46 -31 61 -31 166 -9 264 24 307 105 10 19 28 39 40 44 15 7 27 29 39 76 10
36 31 92 46 124 25 53 27 65 19 108 -6 27 -9 83 -8 124 l2 75 -33 5 c-27 4
-35 11 -42 35 -5 17 -17 47 -25 68 -14 32 -20 37 -40 32 -13 -3 -34 -3 -48 1
-20 5 -25 12 -25 39 0 45 16 53 41 21 45 -57 155 -56 258 2 l65 37 150 -151
c83 -83 200 -195 260 -250 138 -125 187 -173 208 -204 l17 -25 0 28 c1 31 -36
70 -319 337 -78 74 -178 169 -221 211 l-79 76 16 44 c33 92 55 176 60 234 l6
60 -21 -22 c-22 -24 -61 -31 -61 -13 0 6 7 25 16 41 19 38 36 135 21 120 -16
-16 -36 -13 -68 10 -17 12 -26 26 -23 32 4 7 -4 2 -18 -10 -13 -13 -36 -23
-51 -23 -30 0 -77 -19 -77 -31 0 -5 -11 -16 -25 -25 -24 -15 -26 -15 -44 7
l-18 23 -27 -42 c-14 -23 -31 -42 -37 -42 -8 0 -139 104 -195 155 -6 6 -37 33
-69 60 -124 106 -327 305 -362 354 -34 49 20 119 147 191 41 23 85 49 97 56
l23 14 -41 60 -41 60 25 43 c38 66 42 85 18 105 -17 14 -22 32 -26 96 -3 43
-13 92 -22 110 -9 17 -17 52 -18 77 -1 40 -7 51 -38 79 -20 17 -75 83 -122
146 -47 62 -101 128 -120 145 -27 25 -35 40 -35 66 l0 35 -41 -31 -42 -30 -31
25 c-16 15 -56 39 -88 54 -31 15 -74 38 -95 51 -22 14 -49 22 -66 20 -18 -2
-43 7 -66 22 l-38 25 -47 -30 c-44 -29 -47 -30 -65 -14 -11 10 -25 31 -31 47
l-12 29 -40 -35 c-53 -45 -103 -68 -160 -73 -65 -6 -81 6 -85 64 -8 106 -80
228 -185 313 -53 43 -65 49 -92 43 -60 -12 -105 -6 -133 19 l-26 24 7 -28z
m1432 -1853 c31 -15 84 -64 151 -141 15 -18 55 -46 88 -62 78 -38 113 -66 275
-226 l136 -133 -13 -39 c-10 -26 -13 -79 -11 -172 l3 -134 -38 -19 c-51 -28
-69 -13 -64 53 2 27 3 49 1 49 -1 0 -13 -24 -27 -53 -42 -91 -126 -152 -133
-96 -1 5 -2 16 -3 24 -2 29 -16 15 -34 -33 -19 -54 -48 -97 -78 -113 -17 -9
-23 -2 -53 63 -41 90 -136 314 -136 322 0 3 -32 86 -71 184 -79 198 -79 197
-68 234 5 18 3 31 -6 38 -20 17 -64 123 -68 166 -4 49 9 91 31 97 37 10 86 6
118 -9z m1034 -433 c16 -31 12 -48 -15 -55 -33 -8 -75 3 -75 20 0 21 37 54 60
54 10 0 24 -9 30 -19z m-113 -21 c-1 -17 -3 -18 -15 -6 -8 8 -11 19 -7 25 9
16 24 4 22 -19z"/>
<path d="M825 3685 c-47 -22 -63 -39 -85 -87 -68 -155 21 -348 162 -348 32 0
36 -4 46 -38 22 -72 80 -96 127 -52 45 42 42 109 -7 161 -19 20 -23 32 -16 48
12 33 1 126 -22 175 -24 53 -91 123 -136 142 -39 16 -32 17 -69 -1z"/>
<path d="M1353 3593 c-18 -6 -16 -43 1 -43 8 0 18 4 21 10 9 14 -8 38 -22 33z"/>
<path d="M4645 3197 c-20 -23 -45 -58 -55 -77 -46 -90 -70 -250 -36 -250 8 0
17 -11 20 -25 5 -18 13 -25 30 -25 13 0 36 -6 51 -14 46 -24 102 0 163 69 40
46 69 120 63 164 -4 33 -79 173 -86 161 -10 -17 -39 -11 -77 15 l-37 25 -36
-43z"/>
<path d="M5045 3228 c-80 -44 -128 -148 -100 -216 17 -40 71 -68 122 -63 23 2
76 56 94 96 52 115 -23 235 -116 183z"/>
<path d="M890 3034 c-24 -63 -2 -103 47 -87 34 12 39 30 19 77 -18 44 -51 49
-66 10z"/>
<path d="M1534 3034 c5 -13 4 -14 -7 -6 -7 6 -24 10 -36 7 -52 -10 -61 -16
-61 -43 0 -15 -16 -47 -34 -71 l-34 -45 24 -19 c13 -10 24 -27 24 -37 0 -18
19 -30 49 -30 9 0 34 -9 55 -20 51 -26 75 -14 138 70 59 79 52 156 -18 185
-30 12 -40 13 -52 3 -10 -8 -13 -9 -9 -2 4 7 0 15 -9 18 -27 10 -36 7 -30 -10z"/>
<path d="M5520 2853 c-45 -18 -69 -90 -50 -147 22 -69 97 -58 131 19 39 88 -4
158 -81 128z"/>
<path d="M4721 2681 c-24 -24 -26 -40 -8 -65 17 -23 55 -18 73 9 11 16 11 25
1 45 -16 32 -41 36 -66 11z"/>
<path d="M625 2662 l-50 -3 -32 -74 c-47 -103 -44 -163 9 -221 32 -36 5 -120
-61 -192 -99 -107 -52 -384 82 -486 51 -39 102 -56 165 -57 66 -1 158 31 182
64 106 146 131 300 79 492 -8 28 -22 48 -49 66 -65 46 -93 92 -95 157 -3 72
-30 127 -96 192 -62 62 -71 66 -134 62z"/>
<path d="M5657 2216 c-97 -28 -158 -123 -153 -237 1 -37 7 -74 14 -81 9 -11 6
-28 -13 -74 -22 -55 -31 -107 -27 -160 3 -29 50 -74 77 -74 28 0 71 33 89 68
8 15 19 52 26 83 9 41 19 60 40 74 34 23 86 99 98 145 17 67 -4 205 -38 243
-15 17 -76 24 -113 13z"/>
<path d="M4571 2059 c16 -23 24 -28 33 -19 8 8 5 16 -13 31 -35 29 -45 23 -20
-12z"/>
<path d="M1081 1891 c-28 -7 -41 -31 -18 -31 9 0 23 7 31 16 14 13 21 26 14
23 -2 -1 -14 -4 -27 -8z"/>
<path d="M1317 1623 c-4 -3 -7 -27 -7 -51 0 -25 -6 -52 -14 -61 -17 -19 -31
-187 -28 -326 5 -232 86 -346 256 -362 106 -10 180 27 235 117 82 133 88 332
15 441 -27 39 -35 44 -114 65 -111 31 -162 43 -208 50 -49 8 -51 10 -73 58
-20 45 -51 80 -62 69z"/>
<path d="M2227 1449 c-15 -4 -41 -6 -57 -4 -22 3 -37 -3 -55 -20 -13 -14 -33
-25 -45 -25 -34 0 -97 -115 -115 -210 -8 -39 -8 -153 0 -195 10 -53 35 -93 91
-145 169 -155 396 -103 459 105 37 126 -15 405 -77 405 -6 0 -33 16 -61 36
-67 49 -105 63 -140 53z"/>
<path d="M3454 436 c-3 -8 -3 -20 0 -25 10 -15 34 -2 32 17 -4 22 -25 27 -32
8z"/>
</g>
</svg>
